<?xml version="1.0" encoding="UTF-8" standalone="no"?>
<svg xmlns:cc="http://creativecommons.org/ns#" xmlns:dc="http://purl.org/dc/elements/1.1/"
    xmlns:inkscape="http://www.inkscape.org/namespaces/inkscape"
    xmlns:rdf="http://www.w3.org/1999/02/22-rdf-syntax-ns#"
    xmlns:sodipodi="http://sodipodi.sourceforge.net/DTD/sodipodi-0.dtd" height="1792" id="svg3407"
    version="1.1" viewBox="0 0 1792 1792" width="1792" xmlns="http://www.w3.org/2000/svg"
    inkscape:export-filename="/Users/vince/Downloads/eticket/eticket_raw_42.png"
    inkscape:export-xdpi="90" inkscape:export-ydpi="90" inkscape:version="0.91 r13725"
    sodipodi:docname="eticket_raw_42_grey.svg">
    <metadata id="metadata3415">
        <rdf:RDF>
            <cc:Work rdf:about="">
                <dc:format>image/svg+xml</dc:format>
                <dc:type rdf:resource="http://purl.org/dc/dcmitype/StillImage" />
                <dc:title></dc:title>
            </cc:Work>
        </rdf:RDF>
    </metadata>
    <defs id="defs3413" />
    <sodipodi:namedview bordercolor="#666666" borderopacity="1" gridtolerance="10"
        guidetolerance="10" id="namedview3411" objecttolerance="10" pagecolor="#ffffff"
        showgrid="false" inkscape:current-layer="svg3407" inkscape:cx="329.866"
        inkscape:cy="1028.1701" inkscape:pageopacity="0" inkscape:pageshadow="2"
        inkscape:window-height="760" inkscape:window-maximized="0" inkscape:window-width="1343"
        inkscape:window-x="0" inkscape:window-y="0" inkscape:zoom="0.25" />
    <path style="fill:#f9f9f9"
        d="M 1095.8027 5 C 1058.0828 5 1029.4306 14.81099 1003.3438 40.945312 L 44.130859 1000.8516 C 18.044212 1026.986 5 1058.9475 5 1096.7363 C 5 1134.5253 18.044212 1166.4869 44.130859 1192.6211 L 176.32617 1326.1172 C 215.80866 1286.5626 263.75074 1266.7852 320.1543 1266.7852 C 376.55786 1266.7852 424.50187 1286.5626 463.98438 1326.1172 C 503.46686 1365.6718 523.20703 1413.7023 523.20703 1470.209 C 523.20703 1526.7154 503.46686 1574.7462 463.98438 1614.3008 L 597.23828 1747.7988 C 623.32493 1773.9332 655.22737 1787 692.94727 1787 C 730.66715 1787 762.56959 1773.9332 788.65625 1747.7988 L 1747.8691 785.77344 C 1773.9557 759.63911 1787 727.67748 1787 689.88867 C 1787 652.09984 1773.9557 620.13825 1747.8691 594.00391 L 1614.6172 461.56641 C 1575.1347 501.12105 1527.1906 520.89844 1470.7871 520.89844 C 1414.3835 520.89844 1366.4415 501.12105 1326.959 461.56641 C 1287.4766 422.01176 1267.7344 373.98124 1267.7344 317.47461 C 1267.7344 260.96796 1287.4766 212.93744 1326.959 173.38281 L 1194.7637 40.945312 C 1168.6769 14.81099 1133.5227 5 1095.8027 5 z M 896 343.88867 L 1153.6523 601.54102 L 896 859.19336 L 638.34766 601.54102 L 896 343.88867 z M 896 417.50195 L 711.96289 601.54102 L 896 785.57812 L 1080.0371 601.54102 L 896 417.50195 z M 896 491.11719 L 1006.4219 601.54102 L 896 711.96289 L 785.57812 601.54102 L 896 491.11719 z M 601.54102 638.34766 L 638.34766 675.1543 L 601.54102 711.96289 L 564.73242 675.1543 L 601.54102 638.34766 z M 1190.459 638.34766 L 1227.2676 675.1543 L 1153.6523 748.76953 L 1190.459 785.57812 L 1264.0742 711.96289 L 1300.8828 748.76953 L 1190.459 859.19336 L 1227.2676 896 L 1264.0742 859.19336 L 1300.8828 896 L 1227.2676 969.61523 L 1300.8828 1043.2305 L 1190.459 1153.6523 L 1153.6523 1116.8457 L 1080.0371 1190.459 L 1043.2305 1153.6523 L 1006.4219 1190.459 L 1043.2305 1227.2676 L 1006.4219 1264.0742 L 1043.2305 1300.8828 L 1006.4219 1337.6895 L 969.61523 1300.8828 L 896 1374.498 L 932.80664 1411.3047 L 896 1448.1113 L 859.19336 1411.3047 L 896 1374.498 L 859.19336 1337.6895 L 822.38477 1374.498 L 785.57812 1337.6895 L 822.38477 1300.8828 L 859.19336 1337.6895 L 896 1300.8828 L 822.38477 1227.2676 L 785.57812 1264.0742 L 748.76953 1227.2676 L 711.96289 1264.0742 L 675.1543 1227.2676 L 711.96289 1190.459 L 748.76953 1227.2676 L 822.38477 1153.6523 L 785.57812 1116.8457 L 748.76953 1153.6523 L 711.96289 1116.8457 L 748.76953 1080.0371 L 785.57812 1116.8457 L 822.38477 1080.0371 L 748.76953 1006.4219 L 675.1543 1080.0371 L 638.34766 1043.2305 L 711.96289 969.61523 L 748.76953 1006.4219 L 785.57812 969.61523 L 711.96289 896 L 601.54102 1006.4219 L 527.92578 932.80664 L 491.11719 969.61523 L 601.54102 1080.0371 L 564.73242 1116.8457 L 454.31055 1006.4219 L 491.11719 969.61523 L 454.31055 932.80664 L 417.50195 969.61523 L 343.88867 896 L 380.69531 859.19336 L 454.31055 932.80664 L 491.11719 896 L 527.92578 932.80664 L 601.54102 859.19336 L 564.73242 822.38477 L 527.92578 859.19336 L 491.11719 822.38477 L 454.31055 859.19336 L 417.50195 822.38477 L 454.31055 785.57812 L 491.11719 822.38477 L 527.92578 785.57812 L 491.11719 748.76953 L 527.92578 711.96289 L 564.73242 748.76953 L 527.92578 785.57812 L 564.73242 822.38477 L 601.54102 785.57812 L 638.34766 822.38477 L 601.54102 859.19336 L 638.34766 896 L 675.1543 859.19336 L 711.96289 896 L 748.76953 859.19336 L 711.96289 822.38477 L 748.76953 785.57812 L 785.57812 822.38477 L 748.76953 859.19336 L 822.38477 932.80664 L 859.19336 896 L 932.80664 969.61523 L 969.61523 932.80664 L 1043.2305 1006.4219 L 1116.8457 932.80664 L 1153.6523 969.61523 L 1190.459 932.80664 L 1116.8457 859.19336 L 1080.0371 896 L 1043.2305 859.19336 L 1080.0371 822.38477 L 1043.2305 785.57812 L 1190.459 638.34766 z M 932.80664 969.61523 L 896 1006.4219 L 932.80664 1043.2305 L 896 1080.0371 L 859.19336 1043.2305 L 822.38477 1080.0371 L 859.19336 1116.8457 L 822.38477 1153.6523 L 896 1227.2676 L 932.80664 1190.459 L 896 1153.6523 L 932.80664 1116.8457 L 969.61523 1153.6523 L 1006.4219 1116.8457 L 969.61523 1080.0371 L 1006.4219 1043.2305 L 932.80664 969.61523 z M 1006.4219 1116.8457 L 1043.2305 1153.6523 L 1080.0371 1116.8457 L 1043.2305 1080.0371 L 1006.4219 1116.8457 z M 859.19336 1043.2305 L 896 1006.4219 L 822.38477 932.80664 L 785.57812 969.61523 L 859.19336 1043.2305 z M 969.61523 1300.8828 L 1006.4219 1264.0742 L 969.61523 1227.2676 L 932.80664 1264.0742 L 969.61523 1300.8828 z M 1337.6895 785.57812 L 1374.498 822.38477 L 1337.6895 859.19336 L 1300.8828 822.38477 L 1337.6895 785.57812 z M 1411.3047 859.19336 L 1448.1113 896 L 1337.6895 1006.4219 L 1300.8828 969.61523 L 1411.3047 859.19336 z M 1190.459 1006.4219 L 1153.6523 1043.2305 L 1190.459 1080.0371 L 1227.2676 1043.2305 L 1190.459 1006.4219 z "
        id="path3409" />
    <g id="g4129" transform="matrix(3.6807474,3.6807474,-3.6807474,3.6807474,896,270.27294)" />
</svg>
