<?xml version="1.0" encoding="UTF-8" standalone="no"?>
<svg xmlns:cc="http://creativecommons.org/ns#" xmlns:dc="http://purl.org/dc/elements/1.1/"
    xmlns:inkscape="http://www.inkscape.org/namespaces/inkscape" xmlns:rdf="http://www.w3.org/1999/02/22-rdf-syntax-ns#"
    xmlns:sodipodi="http://sodipodi.sourceforge.net/DTD/sodipodi-0.dtd"
    height="1792" id="svg3407"
    version="1.1" viewBox="0 0 1792 1792" width="1792" xmlns="http://www.w3.org/2000/svg" inkscape:version="0.91 r13725"
    sodipodi:docname="eticket_raw_plain.svg">
    <metadata id="metadata3415">
        <rdf:RDF>
            <cc:Work rdf:about="">
                <dc:format>image/svg+xml</dc:format>
                <dc:type rdf:resource="http://purl.org/dc/dcmitype/StillImage" />
                <dc:title></dc:title>
            </cc:Work>
        </rdf:RDF>
    </metadata>
    <defs id="defs3413" />
    <sodipodi:namedview bordercolor="#666666" borderopacity="1" gridtolerance="10"
        guidetolerance="10" id="namedview3411" objecttolerance="10" pagecolor="#ffffff"
        showgrid="false" inkscape:current-layer="svg3407" inkscape:cx="678.01881"
        inkscape:cy="928.36001" inkscape:pageopacity="0" inkscape:pageshadow="2" inkscape:window-height="739"
        inkscape:window-maximized="0" inkscape:window-width="1263" inkscape:window-x="0"
        inkscape:window-y="0" inkscape:zoom="0.35355339" />
    <path
        d="M 1747.8701,785.773 788.657,1747.7985 C 762.57034,1773.9329 730.66709,1787 692.94721,1787 c -37.7199,0 -69.62315,-13.0671 -95.7098,-39.2015 L 463.98399,1614.3017 c 39.48249,-39.5546 59.22374,-87.5855 59.22374,-144.0919 0,-56.5067 -19.74125,-104.5375 -59.22374,-144.0921 -39.4825,-39.5546 -87.42552,-59.3319 -143.82908,-59.3319 -56.40356,0 -104.34659,19.7773 -143.82908,59.3319 L 44.129971,1192.6208 C 18.043324,1166.4866 5,1134.525 5,1096.736 c 0,-37.7888 13.043324,-69.7502 39.129971,-95.8846 L 1003.343,40.944839 C 1029.4298,14.810517 1058.0821,5 1095.802,5 c 37.72,0 72.8739,9.810517 98.9607,35.944839 l 132.1957,132.437451 c -39.4824,39.55463 -59.2237,87.58528 -59.2237,144.09193 0,56.50663 19.7413,104.53728 59.2237,144.09193 39.4825,39.55464 87.4256,59.33197 143.8292,59.33197 56.4035,0 104.3465,-19.77733 143.829,-59.33197 l 133.2535,132.43742 c 26.0866,26.13434 39.1299,58.0959 39.1299,95.88473 0,37.78881 -13.0433,69.75037 -39.1299,95.8847 z"
        id="path3409" inkscape:connector-curvature="0"
        sodipodi:nodetypes="ccsscsssccsccsscsssccsc" />
</svg>
