<?xml version="1.0" standalone="yes"?>
<svg height="170" version="1.1" width="170" xmlns="http://www.w3.org/2000/svg">
    <path style="fill:#000000; stroke:none;" d="M0 0L0 170L170 170L170 0L0 0z" />
    <path style="fill:#ffffff; stroke:none;"
        d="M10 10L10 80L80 80L80 10L10 10M90 10L90 50L100 50L100 60L110 60L110 50L130 50L130 60L120 60L120 80L100 80L100 90L80 90L80 100L60 100L60 90L50 90L50 100L60 100L60 110L50 110L50 120L40 120L40 110L30 110L30 120L20 120L20 110L10 110L10 120L20 120L20 130L10 130L10 140L20 140L20 130L30 130L30 120L40 120L40 140L30 140L30 150L10 150L10 160L30 160L30 150L40 150L40 160L70 160L70 150L40 150L40 140L60 140L60 110L80 110L80 120L70 120L70 140L80 140L80 120L100 120L100 130L90 130L90 140L100 140L100 130L110 130L110 150L100 150L100 160L110 160L110 150L120 150L120 140L140 140L140 150L130 150L130 160L140 160L140 150L150 150L150 160L160 160L160 150L150 150L150 130L160 130L160 120L150 120L150 110L140 110L140 100L150 100L150 80L160 80L160 50L140 50L140 30L130 30L130 40L120 40L120 10L110 10L110 30L100 30L100 10L90 10M130 10L130 20L140 20L140 10L130 10M150 10L150 40L160 40L160 10L150 10z" />
    <path style="fill:#000000; stroke:none;" d="M20 20L20 70L70 70L70 20L20 20z" />
    <path style="fill:#ffffff; stroke:none;" d="M30 30L30 60L60 60L60 30L30 30z" />
    <path style="fill:#000000; stroke:none;" d="M140 60L140 70L150 70L150 60L140 60z" />
    <path style="fill:#ffffff; stroke:none;" d="M10 90L10 100L20 100L20 90L10 90z" />
    <path style="fill:#000000; stroke:none;"
        d="M100 90L100 100L80 100L80 110L100 110L100 120L110 120L110 130L130 130L130 120L120 120L120 110L130 110L130 100L140 100L140 90L130 90L130 100L120 100L120 90L100 90z" />
    <path style="fill:#ffffff; stroke:none;" d="M100 100L100 110L110 110L110 100L100 100z" />
    <path style="fill:#000000; stroke:none;" d="M140 120L140 130L150 130L150 120L140 120z" />
</svg>
